<?xml version="1.0" encoding="utf-8"?>
<!-- Generator: Adobe Illustrator 24.0.2, SVG Export Plug-In . SVG Version: 6.00 Build 0)  -->
<svg version="1.1" id="Capa_1" xmlns="http://www.w3.org/2000/svg" xmlns:xlink="http://www.w3.org/1999/xlink" x="0px" y="0px"
	 viewBox="0 0 186.1 148.9" style="enable-background:new 0 0 186.1 148.9;" xml:space="preserve">
<style type="text/css">
	.st0{fill:#1A292E;}
	.st1{fill:#3D8691;}
	.st2{fill:url(#SVGID_1_);}
	.st3{fill:#151D23;}
	.st4{fill:#1B4049;}
	.st5{fill:#90CFD4;}
</style>
<g id="Capa_1_1_">
</g>
<g id="Capa_4">
</g>
<g id="Capa_3">
</g>
<g id="Capa_5">
</g>
<g>
	<path class="st0" d="M24.9,126.8c-0.8,1.5-2.1,1.4-4.4,3.5c-3.3,3-5.9,5.6-9.4,8.1c-1.9,1.4-4.5,3.1-7,7
		c14.3-0.9,28.1-1.5,38.8-0.5c21.6,1.5,41.1,3.9,45.2,3.7c6.2-6.1,12.1-13.2,17.3-20.6C79.9,124.6,53.9,124.3,24.9,126.8z"/>
	<path class="st1" d="M107,114.4c-0.5,12-0.4,23.2,1.6,32.2l4.8-7.6l2.5-4.4l2.2-5.5l-0.5-0.8c-3.3-8.5-3.6-21.4-5.5-24.5
		C109.3,107,107.5,109.8,107,114.4z"/>
	<path class="st0" d="M108.6,146.6c4.1-0.5,10.7-0.9,40.5-1.6h7.1l7.9-1.3c2.6,0.1,4.9-1.9,7.1-3.9c5.5-3.4,10.3-7.3,14.5-12.3
		c-20.9,3.5-19.5,2.3-29.2,2.7c-13.1,0.3-26,0.1-38.3-1.1L108.6,146.6z"/>
	
		<linearGradient id="SVGID_1_" gradientUnits="userSpaceOnUse" x1="1.3932" y1="131.5651" x2="86.387" y2="119.6798" gradientTransform="matrix(1 0 0 -1 0 199.4003)">
		<stop  offset="0" style="stop-color:#FFFFFF"/>
		<stop  offset="9.245475e-03" style="stop-color:#F3F8F8"/>
		<stop  offset="4.640000e-02" style="stop-color:#C9DDE0"/>
		<stop  offset="8.660000e-02" style="stop-color:#A3C6CB"/>
		<stop  offset="0.1294" style="stop-color:#84B2B9"/>
		<stop  offset="0.1758" style="stop-color:#6AA3AB"/>
		<stop  offset="0.2269" style="stop-color:#5796A0"/>
		<stop  offset="0.2854" style="stop-color:#498E98"/>
		<stop  offset="0.3576" style="stop-color:#408993"/>
		<stop  offset="0.4848" style="stop-color:#3E8792"/>
		<stop  offset="0.632" style="stop-color:#3D8691"/>
		<stop  offset="1" style="stop-color:#3D8691"/>
	</linearGradient>
	<path class="st2" d="M4.1,145.4c-3.3-10.7-3.8-18.9-3.5-26.5c0.1-23.8,0.6-46.2,2-65.5C6.8,33.5,15.3,20.7,28.8,16
		c8.2-3.8,16.1-6,25-7.7l32.5-5.7c-24.5,5-32,14.5-39.3,24c-7.4,11.1-9.7,20-11.2,27.9C34.7,76,33,110.8,25.2,126.8L4.1,145.4z"/>
	<path class="st3" d="M118.1,129.8c-0.7,1.1-2.7,4.6-5.2,9.6c0,0.2,42.7,1.5,42.9,1.6c0.6,0.6,14.3-1.2,13.9-1.8
		c4.3-1.6,9.6-5.8,15.5-11.4c-2.8,1-7.9,1.7-13.9,2.3c-19,1.6-28.2,1.5-35.8,1C129,130.9,123.5,130.3,118.1,129.8z"/>
	<path class="st4" d="M25.2,126.8c28.1-2.1,54.5-1.6,80.2,1.2c1.7-11.3,3.5-21.3,6.3-23.6c2.6,1.1,1.7,14.6,6.2,25.1
		c22.5,2,44.9,2.3,67.7-2.1c0,0-1.3-34.8-4.6-60.1c-3.4-25.3-17.9-53.7-42.8-60.7c-27.6-8-55-8-77.4,5.2
		C44.5,25,36.4,42.4,34.7,63.2C32.7,94.1,29.9,116.2,25.2,126.8z"/>
	<g>
		<g>
			<path class="st5" d="M142.4,64.9c1.7-3.5,0.9-6.5,0.6-8.9c-1.5-2-3.6-8.5-5.9-17l-2.1-1.4l-3.2-2.3l-6.5-5.5
				c-4.5-0.7-9.3-2-14.4-3.9c0,0-7,0-10.1,0S91,26.4,91,26.4l-3.9,1.4c-4.4,1.6-8.4,4.2-12.1,7.9c-2.3,4.1-4.7,8.4-7.2,12.6
				c-0.9,2.7-0.8,5.7,0,8.8c1.7,3.7,3.8,7.2,6.5,10.4c10.1,10.4,20.1,16.9,29.8,18.7h8.7l16.4-2.4c3.1-1,6-2.5,8.8-4.3
				c2.1-2.8,3.4-5.6,4-8.4c-5.7,4.6-10.6,7.7-13.7,7.4c-2.1,1.7-5,2.6-8.4,3.2l-13.5,0.2c-3.7-1.1-7.6-2.3-11.7-3.5l-7.9-7.2
				c-4-1.6-6.9-5.9-8.9-12l0.4-5l2.4-8.6c2.1-4.4,5.1-6.8,9-7.7l4.3-0.6l5.3-1.2c4.8-0.4,8.8-0.2,11.9,0.6l4.6,0.1
				c4.8,0.8,8.3,3.7,11.2,7.5c2.9,2.5,3.9,3.6,6.3,6.8C136,52.8,140.1,59.6,142.4,64.9z"/>
		</g>
	</g>
	<path class="st3" d="M104.5,128.6c-3.8,4.1-2.8,4.3-6.2,8c-41.8-5.1-72.6-2.8-80.4-3.2l7.3-6.3C50.6,124.9,77.5,125.3,104.5,128.6z
		"/>
</g>
</svg>
